<svg style="display:none" version="1.1" xmlns="http://www.w3.org/2000/svg" xmlns:xlink="http://www.w3.org/1999/xlink" width="152" height="40" viewBox="0 0 152 40">
<defs>
<g id="icon-arrow-left">
	<path class="path1" d="M28.798 34.836c0.536 0.542 0.536 1.416 0 1.958s-1.402 0.542-1.938 0l-15.66-15.814c-0.536-0.542-0.536-1.418 0-1.958l15.66-15.816c0.536-0.542 1.402-0.542 1.938 0s0.536 1.416 0 1.958l-14.28 14.836 14.28 14.836z"></path>
</g>
<g id="icon-arrow-left2">
	<path class="path1" d="M11.199 34.836c-0.536 0.542-0.536 1.416 0 1.958s1.402 0.542 1.938 0l15.66-15.814c0.536-0.542 0.536-1.418 0-1.958l-15.66-15.816c-0.536-0.542-1.402-0.542-1.938 0s-0.536 1.416 0 1.958l14.28 14.836-14.28 14.836z"></path>
</g>
<g id="icon-ellipsis">
	<path class="path1" d="M6 15.6c-2.43 0-4.4 1.97-4.4 4.4s1.97 4.4 4.4 4.4 4.4-1.97 4.4-4.4c0-2.43-1.97-4.4-4.4-4.4zM20 15.6c-2.43 0-4.4 1.97-4.4 4.4s1.97 4.4 4.4 4.4 4.398-1.97 4.398-4.4c0-2.43-1.968-4.4-4.398-4.4zM34 15.6c-2.43 0-4.4 1.97-4.4 4.4s1.97 4.4 4.4 4.4 4.4-1.97 4.4-4.4c0-2.43-1.97-4.4-4.4-4.4z"></path>
</g>
</defs>
<!-- 
<g fill="#000000">
	<use xlink:href="#icon-arrow-left" transform="translate(0 0)"></use>
	<use xlink:href="#icon-arrow-left2" transform="translate(56 0)"></use>
	<use xlink:href="#icon-ellipsis" transform="translate(112 0)"></use>
</g>
 -->
</svg>